# Blender 3.3.0
# www.blender.org
o Cube
v 1.000000 1.000000 -1.000000
v 1.000000 -1.000000 -1.000000
v 1.000000 1.000000 1.000000
v 1.000000 -1.000000 1.000000
v -1.000000 1.000000 -1.000000
v -1.000000 -1.000000 -1.000000
v -1.000000 1.000000 1.000000
v -1.000000 -1.000000 1.000000
vn -0.0000 1.0000 -0.0000
vn -0.0000 -0.0000 1.0000
vn -1.0000 -0.0000 -0.0000
vn -0.0000 -1.0000 -0.0000
vn 1.0000 -0.0000 -0.0000
vn -0.0000 -0.0000 -1.0000
vt 1.000000 -0.000000
vt 1.000000 1.000000
vt -0.000000 0.000000
vt 0.000000 1.000000
vt -0.000000 0.000000
vt 1.000000 -0.000000
vt 1.000000 1.000000
vt -0.000000 0.000000
vt 0.000000 1.000000
vt 1.000000 1.000000
vt 0.000000 1.000000
vt 1.000000 -0.000000
vt 1.000000 1.000000
vt -0.000000 0.000000
vt 0.000000 1.000000
vt 1.000000 1.000000
vt 0.000000 1.000000
vt 1.000000 -0.000000
s 0
f 5/10/1 3/5/1 1/1/1
f 3/6/2 8/17/2 4/8/2
f 7/16/3 6/14/3 8/18/3
f 2/4/4 8/18/4 6/13/4
f 1/1/5 4/9/5 2/3/5
f 5/12/6 2/4/6 6/14/6
f 5/10/1 7/15/1 3/5/1
f 3/6/2 7/16/2 8/17/2
f 7/16/3 5/11/3 6/14/3
f 2/4/4 4/8/4 8/18/4
f 1/1/5 3/7/5 4/9/5
f 5/12/6 1/2/6 2/4/6
